#!OML:ASF F:\VICON\USERDATA\INSTALL\rory3\rory3.ASF
:FULLY-SPECIFIED
:DEGREES
55
root 0.14063811160746384 17.827903866150503 18.467080527615174 3.4938397308125433 0.6278468376706536 -1.326246332639965
lfemur -12.06967190247122 -0.8104174426461823 -25.679072219380156
ltibia 53.24300946120549
lfoot -1.4559317403948722 -6.955476641306003
ltoes -6.3477042361831115
rfemur -25.65199453296249 -0.4336552224404342 26.80749240386044
rtibia 99.96933260231782
rfoot 18.706628358844938 -5.3156239905978335
rtoes -2.2768760188583
lowerback 17.285331881334898 0.7038690861496961 -0.28584994370810235
upperback -0.35096848292573113 0.6098485640033979 0.9528891771394834
thorax -10.230723209896327 1.1257806092653884 -0.9187773864336034
lowerneck -20.644747305124792 -4.150732377163775 -1.9219185237057659
upperneck 13.648772229361605 -5.690780772162549 4.124447038183398
head 7.631810103079143 -2.3923979581020944 0.9423270332310895
lclavicle -1.735735509929816e-15 1.7646214724892531e-15
lhumerus -49.84481506748702 -13.928923070791244 95.62964994063663
lradius 105.4359633409627
lwrist 33.091556152516006
lhand -24.7999404319231 1.6143316371196512
lfingers 7.12502
lthumb 1.706537728881629 31.525186460959834
rclavicle -1.7256712528986592e-15 1.7859264125620542e-15
rhumerus -52.34994643908411 10.871622251659776 -97.70782537960329
rradius 106.33769842078146
rwrist -6.101029507095621
rhand -16.080437082014793 39.989175842666576
rfingers 7.12502
rthumb 10.097020328538827 10.192847381320934
56
root 0.14572993947237503 17.83652374266217 18.859240388622922 3.5473645370631726 0.3139629303521364 -1.2351119478826917
lfemur -9.039884686761049 -0.5876946915509655 -26.13267223199079
ltibia 52.36508751622599
lfoot -0.05318774530375725 -6.98560707457102
ltoes -6.306860896113498
rfemur -28.373354713076367 -0.42077376937136624 26.487511366159872
rtibia 96.72869474109979
rfoot 18.724536529193173 -5.136827110672383
rtoes -7.082737998548842
lowerback 17.322834365439295 0.5830841219057716 -0.4661250513377724
upperback -0.34576534857026753 0.26588077970655655 0.9940329846863851
thorax -10.257195179442686 0.96900655950071 -0.4550890199134513
lowerneck -20.590479098099053 -3.988280070796413 -1.9608106492542543
upperneck 13.654953998432699 -5.460450507498359 3.977718892682695
head 7.623977535875205 -2.277865860895116 0.9441542176120585
lclavicle -1.7357352753090072e-15 1.7646201323919289e-15
lhumerus -47.151244405672806 -15.162157325139507 96.1843544482822
lradius 107.58933548546558
lwrist 32.92718306194021
lhand -24.82076673745504 1.646260178317545
lfingers 7.12502
lthumb 1.694058251536633 31.557756317637757
rclavicle -1.7256715639977656e-15 1.7859261680516064e-15
rhumerus -52.06050323811857 11.069480830827379 -97.62828804786793
rradius 105.65861506609846
rwrist -7.071099057418877
rhand -16.00187316159583 39.989801432619835
rfingers 7.12502
rthumb 10.184288453707868 10.187241359614148
57
root 0.14629407850603357 17.832685800277773 19.164947019160984 3.671286500840983 0.08029703259973586 -1.1860931070902836
lfemur -6.057343696429175 -0.42965682264030985 -26.451873497326478
ltibia 50.547810060278145
lfoot 0.8258173843120389 -7.563487264644485
ltoes -6.50785852414321
rfemur -30.724456749173797 -0.2914779498852289 26.142604902345056
rtibia 91.09176408263875
rfoot 19.17076945793314 -4.680991204006295
rtoes -11.097563808112358
lowerback 17.320521942988314 0.49173007414648934 -0.5859826313296743
upperback -0.3713603592529233 -0.011086881135156101 1.0721351024929953
thorax -10.252797384103257 0.7978688708740952 0.029038225154354835
lowerneck -20.539783375588083 -3.832536808688327 -2.009541877680173
upperneck 13.587198323739777 -5.166367645411795 3.813151896965357
head 7.609541868354641 -2.167001857208476 0.941696732162318
lclavicle -1.7357378402172936e-15 1.7646155902008975e-15
lhumerus -44.77442463714177 -16.103816868499546 96.6795178427507
lradius 109.86285536850859
lwrist 33.099423857410926
lhand -24.84584006927418 1.69664885454554
lfingers 7.12502
lthumb 1.6729407383901957 31.602172138581537
rclavicle -1.7256706794653347e-15 1.7859267898115052e-15
rhumerus -51.719445844062754 11.298701775419072 -97.56333949277487
rradius 104.8991419850822
rwrist -8.103763129041429
rhand -15.93154023658575 40.004004199376894
rfingers 7.12502
rthumb 10.234332015635248 10.193114789955478
58
root 0.14312546190818012 17.800592010460264 19.464224897204467 3.855678260442946 -0.023396180842227277 -1.1633556922516923
lfemur -2.7932702581938287 -0.19703479045451744 -26.64174606605153
ltibia 47.86947174995602
lfoot 1.2567911071987086 -7.541185782856413
ltoes -7.0349659922072805
rfemur -32.52484455954399 -0.03523555829301095 25.765419703175358
rtibia 83.46620918448296
rfoot 18.837637813710266 -4.261825125479305
rtoes -12.24571971148911
lowerback 17.25298195837049 0.4073399533792133 -0.7059963366099848
upperback -0.401681181977084 -0.21556416349775365 1.197873197608587
thorax -10.215419806937613 0.6200473501950596 0.514084675912016
lowerneck -20.50313151257246 -3.692656479157385 -2.0667144216817657
upperneck 13.440340426935851 -4.832251370862992 3.6622954272996213
head 7.591367246561949 -2.0665257200463607 0.9371114330118211
lclavicle -1.7357368093846247e-15 1.7646177521477425e-15
lhumerus -43.992698614778995 -17.14878943462405 97.00324686747697
lradius 112.1194779648086
lwrist 33.45886488298314
lhand -24.865490104434958 1.7812304623128885
lfingers 7.12502
lthumb 1.6516285590959259 31.674119139498117
rclavicle -1.7256711433240335e-15 1.785926453680332e-15
rhumerus -51.54153449798344 11.429635222986096 -97.591672231834
rradius 104.22258237813111
rwrist -9.205961205902671
rhand -15.89209751481528 40.007072985916224
rfingers 7.12502
rthumb 10.26067064979007 10.200084294516788
59
root 0.13880037780612978 17.764056870761422 19.976627164244075 4.0833732454950376 0.021886443410643497 -1.075211000387671
lfemur 0.8245123730352066 0.24970070264914418 -26.657046082586835
ltibia 44.31615161429244
lfoot 0.8691803927075044 -8.275500758261213
ltoes -7.76846893026015
rfemur -32.83620670469794 0.6095565561170708 25.609732712034265
rtibia 74.50908938530995
rfoot 18.17781720243176 -4.321007357593175
rtoes -8.912335782925847
lowerback 17.153681604247804 0.3186973250343629 -0.8315202558139687
upperback -0.43356812025642677 -0.3708942283538048 1.371340725419969
thorax -10.1529025491191 0.43883664307198833 0.983955808764821
lowerneck -20.504613571600192 -3.5849047230700415 -2.137227355844514
upperneck 13.319176714524238 -4.538696712819735 3.5590733718733776
head 7.581213734077104 -1.9918174864024776 0.9335269131085342
lclavicle -1.7357390713956812e-15 1.7646187423013247e-15
lhumerus -44.433605753750896 -18.0890558831995 97.21237275758811
lradius 114.20314048056876
lwrist 33.82166505837197
lhand -24.878052603436178 1.8894692977139511
lfingers 7.12502
lthumb 1.630141712602679 31.76367369507788
rclavicle -1.725670069768517e-15 1.7859272221103022e-15
rhumerus -51.63827715553396 11.409012181732104 -97.71704317856695
rradius 103.73765783844146
rwrist -10.2285083402115
rhand -15.87459967784472 40.00180480482497
rfingers 7.12502
rthumb 10.282841822491385 10.220606697933237
60
root 0.1290629958198434 17.73363233834822 20.577966082259636 4.325006494847108 0.20257561016356873 -0.9430679635064745
lfemur 4.212438757642305 0.7564641851867864 -26.633267992517542
ltibia 39.28222453030691
lfoot 1.7271087297695882 -8.948186761630861
ltoes -8.630657627516571
rfemur -32.80356507919758 1.382192580572072 25.405217963717586
rtibia 65.16350649259658
rfoot 17.159104932501666 -4.885520414154419
rtoes -1.1325699242674223
lowerback 17.07244912434676 0.228521672248015 -0.9293713403698545
upperback -0.47035592728753584 -0.488881675704234 1.5843356947559093
thorax -10.066042721141633 0.26560596146242205 1.443291905603511
lowerneck -20.54938245071956 -3.516170821669917 -2.217763373592904
upperneck 13.27830548878688 -4.306926872089137 3.5044961916807535
head 7.578124279107322 -1.9415268373439252 0.9364034975511955
lclavicle -1.7357380596325863e-15 1.7646188459064604e-15
lhumerus -45.38501457595105 -18.43181120928428 97.30646736641987
lradius 115.97301056840145
lwrist 34.070175838473055
lhand -24.879349295498955 2.0329988730204334
lfingers 7.12502
lthumb 1.6148044212719181 31.88002950593633
rclavicle -1.725670116533448e-15 1.7859271894026212e-15
rhumerus -51.79631400870707 11.359457036467985 -97.81521071186349
rradius 103.46171350600524
rwrist -11.090302389618504
rhand -15.876724716537264 39.98627493674998
rfingers 7.12502
rthumb 10.287881958224984 10.241437246403045
